<svg width="29" height="32" viewBox="0 0 29 32" fill="none" xmlns="http://www.w3.org/2000/svg">
<path d="M0 5.7007C0 2.55229 2.55229 0 5.7007 0H22.8028C25.9512 0 28.5035 2.55229 28.5035 5.70071V22.8028C28.5035 25.9512 25.9512 28.5035 22.8028 28.5035H5.7007C2.55229 28.5035 0 25.9512 0 22.8028V5.7007Z" fill="#FF6C3E"/>
<path fill-rule="evenodd" clip-rule="evenodd" d="M22.8028 2.85035H5.7007C4.1265 2.85035 2.85035 4.1265 2.85035 5.7007V22.8028C2.85035 24.377 4.1265 25.6532 5.7007 25.6532H22.8028C24.377 25.6532 25.6532 24.377 25.6532 22.8028V5.70071C25.6532 4.1265 24.377 2.85035 22.8028 2.85035ZM5.7007 0C2.55229 0 0 2.55229 0 5.7007V22.8028C0 25.9512 2.55229 28.5035 5.7007 28.5035H22.8028C25.9512 28.5035 28.5035 25.9512 28.5035 22.8028V5.70071C28.5035 2.55229 25.9512 0 22.8028 0H5.7007Z" fill="#1C1C1C"/>
<path d="M0 6.48413C0 2.59307 3.81204 -0.154497 7.50343 1.07596L17.4797 4.40137C19.8075 5.17732 21.3776 7.35578 21.3776 9.80954V26.2949C21.3776 30.186 17.5656 32.9335 13.8742 31.7031L3.89799 28.3777C1.57015 27.6017 0 25.4233 0 22.9695V6.48413Z" fill="white"/>
<path fill-rule="evenodd" clip-rule="evenodd" d="M16.5783 7.10546L6.60207 3.78005C4.75637 3.16482 2.85035 4.5386 2.85035 6.48413V22.9695C2.85035 24.1964 3.63543 25.2856 4.79935 25.6736L14.7756 28.999C16.6213 29.6142 18.5273 28.2405 18.5273 26.2949V9.80954C18.5273 8.58266 17.7422 7.49343 16.5783 7.10546ZM7.50343 1.07596C3.81204 -0.154497 0 2.59307 0 6.48413V22.9695C0 25.4233 1.57015 27.6017 3.89799 28.3777L13.8742 31.7031C17.5656 32.9335 21.3776 30.186 21.3776 26.2949V9.80954C21.3776 7.35578 19.8075 5.17732 17.4797 4.40137L7.50343 1.07596Z" fill="#1C1C1C"/>
</svg>
