<svg width="82" height="32" viewBox="0 0 82 32" fill="none" xmlns="http://www.w3.org/2000/svg">
<path d="M55.4595 12.7806C55.9122 12.7806 56.2988 12.9504 56.6194 13.2899C56.9401 13.6105 57.1004 13.9971 57.1004 14.4498C57.1004 14.9025 56.9401 15.2891 56.6194 15.6097C56.2988 15.9304 55.9122 16.0907 55.4595 16.0907H48.2735V17.0243H52.7718C53.828 17.0243 54.7239 17.4015 55.4595 18.156C56.1951 18.8915 56.5629 19.778 56.5629 20.8154V23.6162C56.5629 24.182 56.3648 24.663 55.9687 25.0591C55.5727 25.4551 55.0917 25.6532 54.5259 25.6532C53.9601 25.6532 53.4697 25.4551 53.0547 25.0591C52.6587 24.663 52.4606 24.182 52.4606 23.6162V21.2963C52.4606 20.7682 52.1494 20.4476 51.527 20.3344H37.7774C37.3248 20.3344 36.9381 20.1741 36.6175 19.8534C36.2968 19.5328 36.1365 19.1462 36.1365 18.6935C36.1365 18.2408 36.2968 17.8542 36.6175 17.5336C36.9381 17.1941 37.3248 17.0243 37.7774 17.0243H44.1713V16.0907H36.9853C36.5326 16.0907 36.1459 15.9304 35.8253 15.6097C35.5047 15.2891 35.3444 14.9025 35.3444 14.4498C35.3444 13.9971 35.5047 13.6105 35.8253 13.2899C36.1459 12.9504 36.5326 12.7806 36.9853 12.7806H55.4595ZM41.5967 7.80134C42.4643 7.55615 43.3508 7.3864 44.2561 7.29209V6.16044H37.5794C37.1267 6.16044 36.7401 6.00012 36.4194 5.67949C36.0988 5.35885 35.9385 4.9722 35.9385 4.51954C35.9385 4.06688 36.0988 3.68023 36.4194 3.3596C36.7401 3.0201 37.1267 2.85035 37.5794 2.85035H54.8654C55.318 2.85035 55.7047 3.0201 56.0253 3.3596C56.346 3.68023 56.5063 4.06688 56.5063 4.51954C56.5063 4.9722 56.346 5.35885 56.0253 5.67949C55.7047 6.00012 55.318 6.16044 54.8654 6.16044H48.1886V7.29209C49.094 7.3864 49.9804 7.55615 50.848 7.80134L55.4878 9.01786C56.4497 9.37622 56.8458 10.0458 56.676 11.0266C56.5629 11.4038 56.3554 11.7055 56.0536 11.9319C55.7707 12.1582 55.4501 12.2714 55.0917 12.2714C54.9408 12.2714 54.7994 12.2525 54.6673 12.2148L49.9993 10.9983C47.4908 10.3381 44.9728 10.3381 42.4455 10.9983L37.8057 12.2148C36.8061 12.3845 36.1271 11.9885 35.7687 11.0266C35.599 10.0458 35.9951 9.37622 36.957 9.01786L41.5967 7.80134Z" fill="#1C1C1C"/>
<path d="M74.8663 16.4302C76.1299 16.4302 77.2144 16.8829 78.1198 17.7882C79.0251 18.6746 79.4777 19.7591 79.4777 21.0417C79.4777 22.3054 79.0251 23.3899 78.1198 24.2952C77.2144 25.2005 76.1299 25.6532 74.8663 25.6532H64.0024C62.7198 25.6532 61.6259 25.2005 60.7206 24.2952C59.8153 23.3899 59.3626 22.3054 59.3626 21.0417C59.3626 19.7591 59.8153 18.6746 60.7206 17.7882C61.6259 16.8829 62.7198 16.4302 64.0024 16.4302H74.8663ZM75.3189 21.0417C75.3189 20.6833 75.1963 20.3816 74.9511 20.1364C74.7059 19.8723 74.4042 19.7403 74.0458 19.7403H64.7945C64.4362 19.7403 64.1344 19.8723 63.8892 20.1364C63.644 20.3816 63.5214 20.6833 63.5214 21.0417C63.5214 21.4 63.644 21.7112 63.8892 21.9753C64.1344 22.2205 64.4362 22.3431 64.7945 22.3431H74.0458C74.4042 22.3431 74.7059 22.2205 74.9511 21.9753C75.1963 21.7112 75.3189 21.4 75.3189 21.0417ZM79.7607 7.03747C80.2699 7.03747 80.7037 7.21665 81.0621 7.57501C81.4204 7.9145 81.5996 8.33887 81.5996 8.84812C81.5996 9.35736 81.4204 9.79116 81.0621 10.1495C80.7037 10.5079 80.2699 10.6871 79.7607 10.6871H78.9685V13.7708C78.9685 14.3366 78.7705 14.827 78.3744 15.242C77.9783 15.638 77.4973 15.8361 76.9315 15.8361C76.3657 15.8361 75.8847 15.638 75.4887 15.242C75.0926 14.827 74.8945 14.3366 74.8945 13.7708V4.91562C74.8945 4.34979 75.0926 3.86884 75.4887 3.47276C75.8847 3.05782 76.3657 2.85035 76.9315 2.85035C77.4973 2.85035 77.9783 3.05782 78.3744 3.47276C78.7705 3.86884 78.9685 4.34979 78.9685 4.91562V7.03747H79.7607ZM63.9458 15.5532C62.5124 15.5532 61.2864 15.0722 60.2679 14.1103C59.2494 13.1295 58.7402 11.9224 58.7402 10.489V4.91562C58.7402 4.34979 58.9382 3.86884 59.3343 3.47276C59.7304 3.05782 60.2113 2.85035 60.7772 2.85035C61.343 2.85035 61.8239 3.05782 62.22 3.47276C62.635 3.86884 62.8424 4.34979 62.8424 4.91562V6.01898H69.1514V4.91562C69.1514 4.34979 69.3494 3.86884 69.7455 3.47276C70.1416 3.05782 70.6226 2.85035 71.1884 2.85035C71.7542 2.85035 72.2352 3.05782 72.6312 3.47276C73.0273 3.86884 73.2254 4.34979 73.2254 4.91562V13.6576C73.2254 14.1858 73.0367 14.6384 72.6595 15.0156C72.3012 15.374 71.8674 15.5532 71.3581 15.5532H63.9458ZM62.8424 9.66857V10.0081C62.8424 10.5362 63.0216 10.9888 63.38 11.366C63.7572 11.7244 64.2098 11.9036 64.738 11.9036H69.1514V9.66857H62.8424Z" fill="#1C1C1C"/>
<path d="M0 5.7007C0 2.55229 2.55229 0 5.7007 0H22.8028C25.9512 0 28.5035 2.55229 28.5035 5.70071V22.8028C28.5035 25.9512 25.9512 28.5035 22.8028 28.5035H5.7007C2.55229 28.5035 0 25.9512 0 22.8028V5.7007Z" fill="#FF6C3E"/>
<path fill-rule="evenodd" clip-rule="evenodd" d="M22.8028 2.85035H5.7007C4.1265 2.85035 2.85035 4.1265 2.85035 5.7007V22.8028C2.85035 24.377 4.1265 25.6532 5.7007 25.6532H22.8028C24.377 25.6532 25.6532 24.377 25.6532 22.8028V5.70071C25.6532 4.1265 24.377 2.85035 22.8028 2.85035ZM5.7007 0C2.55229 0 0 2.55229 0 5.7007V22.8028C0 25.9512 2.55229 28.5035 5.7007 28.5035H22.8028C25.9512 28.5035 28.5035 25.9512 28.5035 22.8028V5.70071C28.5035 2.55229 25.9512 0 22.8028 0H5.7007Z" fill="#1C1C1C"/>
<path d="M0 6.48413C0 2.59307 3.81204 -0.154497 7.50343 1.07596L17.4797 4.40137C19.8075 5.17732 21.3776 7.35578 21.3776 9.80954V26.2949C21.3776 30.186 17.5656 32.9335 13.8742 31.7031L3.89799 28.3777C1.57015 27.6017 0 25.4233 0 22.9695V6.48413Z" fill="white"/>
<path fill-rule="evenodd" clip-rule="evenodd" d="M16.5783 7.10546L6.60207 3.78005C4.75637 3.16482 2.85035 4.5386 2.85035 6.48413V22.9695C2.85035 24.1964 3.63543 25.2856 4.79935 25.6736L14.7756 28.999C16.6213 29.6142 18.5273 28.2405 18.5273 26.2949V9.80954C18.5273 8.58266 17.7422 7.49343 16.5783 7.10546ZM7.50343 1.07596C3.81204 -0.154497 0 2.59307 0 6.48413V22.9695C0 25.4233 1.57015 27.6017 3.89799 28.3777L13.8742 31.7031C17.5656 32.9335 21.3776 30.186 21.3776 26.2949V9.80954C21.3776 7.35578 19.8075 5.17732 17.4797 4.40137L7.50343 1.07596Z" fill="#1C1C1C"/>
</svg>
